<svg xmlns="http://www.w3.org/2000/svg" width="4500" height="5400" viewBox="0 0 4500 5400">
<defs></defs>
<text x="2250" y="660" text-anchor="middle" font-family="Impact, 'Arial Black', sans-serif" font-size="380" font-weight="900" letter-spacing="0.02em" fill="#D3A62D" >WE ARE THE</text><text x="2250" y="1140" text-anchor="middle" font-family="Impact, 'Arial Black', sans-serif" font-size="590" font-weight="900" letter-spacing="0.02em" fill="#D3A62D" >WATCHERS.</text><circle cx="2250" cy="2770" r="1280" fill="none" stroke="#A92817" stroke-width="18" stroke-opacity="0.55"/><circle cx="2250" cy="2770" r="940" fill="none" stroke="#A92817" stroke-width="10" stroke-opacity="0.35"/><g transform="translate(1290 1580) scale(3.2 3.2)">
<path d="M300 52 502 132v178c0 158-84 271-202 348C182 581 98 468 98 310V132L300 52Z" fill="#050506" stroke="#D3A62D" stroke-width="18"/>
<path d="M248 530V248l52-78 52 78v282" fill="none" stroke="#D3A62D" stroke-width="16" stroke-linejoin="round"/>
<path d="M226 530h148M236 264h128M254 332h92" stroke="#D3A62D" stroke-width="16" stroke-linecap="round"/>
<path d="M185 352c50-52 180-52 230 0-50 52-180 52-230 0Z" fill="#050506" stroke="#E8E0D0" stroke-width="12"/>
<circle cx="300" cy="352" r="31" fill="#A92817" stroke="#D3A62D" stroke-width="10"/>
</g><text x="2250" y="4620" text-anchor="middle" font-family="Impact, 'Arial Black', sans-serif" font-size="360" font-weight="900" letter-spacing="0.03em" fill="#D3A62D" >WE HOLD THE LINE.</text><g transform="translate(2110 4840) scale(0.4666666666666667 0.4666666666666667)">
<path d="M300 65 480 140v170c0 135-72 242-180 315C192 552 120 445 120 310V140Z" fill="#050506" stroke="#D3A62D" stroke-width="20"/>
<path d="M255 520V260l45-70 45 70v260" fill="none" stroke="#D3A62D" stroke-width="20" stroke-linejoin="round"/>
<path d="M230 330c52-46 88-60 140 0-52 46-88 60-140 0Z" fill="#050506" stroke="#E8E0D0" stroke-width="16"/>
<circle cx="300" cy="330" r="28" fill="#A92817" stroke="#D3A62D" stroke-width="8"/>
</g>
</svg>
